<svg version="1.1" xmlns="http://www.w3.org/2000/svg" viewBox="0 0 4096 2305" style="width: 100%; height: 100%;"><path d="M625.23,658.29 L627.84,658.29 C747.14,878.06 865.32,1100.65 985.50,1319.54 L1083.93,1319.57 C1385.43,1282.53 1385.43,841.41 1086.50,799.94 L766.50,798.85 L690.00,662.88 L690.00,659.29 L1086.98,659.29 C1378.49,674.27 1551.11,1023.63 1380.90,1287.82 C1327.57,1370.59 1233.99,1441.58 1110.50,1453.53 C1040.27,1457.63 958.06,1455.23 886.52,1455.13 C798.34,1290.42 709.31,1122.73 617.80,960.19 C558.41,1052.53 501.83,1151.62 443.00,1244.35 L443.00,1247.54 L684.00,1247.54 L684.00,1252.10 C658.27,1291.74 633.53,1334.01 608.79,1374.60 L362.24,1374.60 C360.94,1375.12 311.90,1454.63 311.90,1454.63 L133.00,1454.63 C295.99,1188.18 463.20,925.28 625.23,658.29 Z" fill="#001744" fill-rule="nonzero"/><path d="M3084.53,903.18 C3201.77,982.47 3159.86,1157.26 3023.50,1181.36 C2922.74,1199.16 2839.54,1134.31 2830.04,1051.58 C2813.94,911.29 2975.22,829.26 3084.53,903.18 Z M3105.96,1006.52 C3083.86,901.30 2939.17,884.09 2887.83,974.92 C2834.94,1068.50 2927.17,1172.37 3029.65,1138.60 C3076.14,1123.28 3119.65,1071.69 3105.96,1006.52 Z" fill="#001744" fill-rule="nonzero"/><path d="M2015.23,877.38 L2158.65,877.38 C2333.28,898.83 2340.84,1148.23 2167.50,1177.89 L2015.26,1178.61 C2013.15,1081.57 2013.20,974.33 2015.23,877.38 Z M2065.50,918.37 C2065.50,918.37 2062.00,920.50 2062.00,920.50 L2062.00,1137.17 L2139.50,1138.40 C2277.87,1131.89 2279.17,936.44 2154.50,919.11 C2150.77,918.59 2067.52,917.75 2065.50,918.37 Z" fill="#004FFE" fill-rule="nonzero"/><path d="M2419.94,877.38 L2464.83,877.38 C2524.49,952.72 2586.43,1027.30 2647.27,1101.55 L2649.50,1100.81 L2650.01,879.38 L2696.01,879.38 L2695.50,1177.01 L2651.50,1177.54 C2590.53,1104.42 2529.77,1027.90 2467.31,957.42 C2463.33,1026.79 2466.04,1106.18 2464.50,1177.01 C2464.05,1177.47 2420.74,1179.25 2419.50,1178.01 C2418.96,1080.91 2418.09,974.63 2419.94,877.38 Z" fill="#001744" fill-rule="nonzero"/><path d="M1737.05,875.38 L1739.53,875.38 C1789.95,977.00 1846.76,1075.46 1896.00,1177.21 C1892.50,1178.20 1842.53,1179.19 1841.01,1178.51 L1737.78,978.33 L1735.50,979.05 L1630.59,1177.50 C1629.31,1178.50 1574.72,1179.20 1573.53,1178.01 L1572.90,1174.75 L1737.05,875.38 Z" fill="#004FFE" fill-rule="nonzero"/><path d="M3777.46,879.38 L3781.83,879.38 L3936.07,1175.59 C3937.65,1177.54 3933.38,1175.44 3934.88,1177.51 L3882.30,1177.51 C3848.68,1110.41 3813.33,1042.29 3778.24,977.26 C3744.14,1044.22 3708.70,1111.50 3674.09,1177.51 L3620.00,1177.51 C3671.44,1077.17 3726.34,979.68 3777.46,879.38 Z" fill="#001744" fill-rule="nonzero"/><path d="M3239.12,879.38 L3289.50,879.39 L3394.50,1088.97 L3396.43,1088.97 C3433.10,1021.02 3470.14,947.98 3506.50,879.88 L3554.00,879.35 L3554.00,885.64 L3398.47,1179.01 L3392.37,1179.61 L3237.87,881.40 C3236.43,879.27 3240.55,881.49 3239.12,879.38 Z" fill="#001744" fill-rule="nonzero"/><path d="M3389.99,1299.28 C3444.80,1317.90 3420.97,1404.07 3357.50,1379.60 C3317.61,1356.07 3336.16,1289.74 3389.99,1299.28 Z M3403.94,1348.93 C3413.31,1308.77 3358.91,1302.47 3353.02,1333.08 C3345.20,1373.69 3396.64,1380.22 3403.94,1348.93 Z" fill="#001744" fill-rule="nonzero"/><path d="M2920.49,1377.29 C2873.35,1402.45 2834.95,1351.64 2864.32,1312.39 C2913.66,1268.38 2968.54,1338.12 2920.49,1377.29 Z M2919.00,1324.95 C2895.40,1296.50 2856.61,1325.42 2874.72,1357.10 C2895.67,1386.07 2936.54,1358.01 2919.00,1324.95 Z" fill="#001744" fill-rule="nonzero"/><path d="M2004.13,1316.62 C2035.86,1376.76 1951.19,1411.93 1929.08,1356.09 C1915.35,1303.93 1976.46,1278.87 2004.13,1316.62 Z M1973.64,1313.57 C1937.10,1308.50 1933.52,1363.07 1964.50,1368.97 C1997.97,1375.34 2007.61,1318.28 1973.64,1313.57 Z" fill="#001744" fill-rule="nonzero"/><path d="M2250.95,1299.56 C2255.24,1301.30 2263.23,1341.35 2266.23,1349.09 C2266.34,1349.38 2266.77,1355.84 2269.50,1352.94 C2272.44,1349.82 2280.75,1301.56 2286.31,1299.56 C2286.31,1299.56 2296.47,1299.36 2296.93,1299.56 C2298.87,1300.44 2311.32,1351.06 2312.08,1351.59 C2312.08,1351.59 2314.92,1351.59 2314.92,1351.59 C2315.59,1351.12 2327.93,1300.83 2331.05,1299.56 C2331.42,1299.41 2342.71,1299.38 2343.06,1299.56 C2345.65,1304.70 2322.95,1379.51 2322.95,1379.51 C2320.25,1383.99 2306.94,1383.50 2305.08,1381.03 C2300.99,1364.90 2296.89,1347.54 2291.98,1332.35 C2285.20,1335.57 2279.17,1380.86 2274.69,1382.68 L2259.60,1382.10 C2257.93,1375.50 2236.98,1303.33 2237.58,1301.44 C2238.04,1300.01 2248.08,1298.40 2250.95,1299.56 Z" fill="#001744" fill-rule="nonzero"/><path d="M2499.24,1299.56 C2499.24,1299.56 2531.08,1299.27 2532.92,1299.56 C2559.91,1304.31 2563.95,1339.68 2540.00,1350.75 C2538.18,1354.93 2558.27,1377.68 2556.00,1381.39 C2555.27,1382.57 2541.87,1383.16 2540.31,1382.60 C2535.47,1380.86 2522.46,1343.12 2513.50,1352.09 C2512.12,1354.72 2514.11,1381.39 2511.94,1382.69 L2497.50,1382.10 C2497.52,1373.01 2494.94,1301.31 2499.24,1299.56 Z M2513.00,1314.57 L2513.00,1338.58 C2513.05,1338.63 2526.50,1338.53 2526.50,1338.53 C2546.12,1335.77 2539.34,1316.30 2533.15,1314.57 C2533.14,1314.57 2513.00,1314.57 2513.00,1314.57 Z" fill="#001744" fill-rule="nonzero"/><path d="M3479.37,1300.06 L3512.47,1353.09 C3514.10,1338.27 3513.68,1315.62 3514.50,1300.06 C3515.25,1299.32 3527.75,1299.32 3528.50,1300.06 C3529.32,1324.28 3529.32,1357.88 3528.50,1382.10 L3514.09,1382.69 C3513.89,1382.61 3482.89,1332.28 3481.50,1331.58 C3481.50,1331.58 3479.01,1331.56 3479.00,1331.58 C3479.00,1331.58 3479.00,1382.69 3479.00,1382.69 L3464.50,1382.10 L3463.98,1300.72 C3466.86,1299.71 3477.01,1298.75 3479.37,1300.06 Z" fill="#001744" fill-rule="nonzero"/><path d="M2413.05,1299.56 C2413.11,1299.54 2424.95,1299.56 2424.95,1299.56 C2430.66,1310.74 2435.75,1327.27 2439.88,1338.08 C2441.96,1343.55 2456.93,1379.67 2454.50,1382.10 C2436.70,1385.57 2439.88,1377.69 2434.76,1366.59 L2403.21,1366.59 C2402.63,1366.94 2398.94,1378.41 2397.82,1380.10 C2395.08,1384.22 2381.38,1383.43 2381.19,1380.10 C2385.26,1372.15 2410.13,1300.75 2413.05,1299.56 Z M2428.81,1350.08 C2416.90,1318.57 2419.80,1317.17 2409.00,1351.59 L2427.88,1351.59 L2428.81,1350.08 Z" fill="#001744" fill-rule="nonzero"/><path d="M3073.50,1299.59 C3073.50,1299.59 3083.31,1299.38 3083.76,1299.56 C3089.25,1301.80 3083.50,1353.50 3086.50,1360.75 C3093.36,1372.69 3116.27,1372.14 3119.00,1356.65 C3120.21,1349.79 3117.99,1302.30 3119.00,1300.60 C3121.87,1299.21 3131.05,1299.20 3133.50,1300.06 C3134.39,1300.96 3134.13,1360.86 3133.50,1363.09 C3126.25,1389.53 3080.04,1391.64 3071.85,1364.69 C3069.67,1357.53 3068.40,1301.46 3073.50,1299.59 Z" fill="#001744" fill-rule="nonzero"/><path d="M3628.50,1323.07 C3607.39,1327.33 3619.51,1315.59 3605.70,1313.57 C3599.56,1312.67 3591.76,1315.47 3591.00,1320.44 C3588.23,1338.50 3627.85,1327.85 3631.25,1353.87 C3637.38,1394.48 3569.42,1392.06 3574.21,1357.59 L3587.96,1357.59 C3592.18,1377.10 3622.29,1369.69 3614.90,1354.84 C3609.85,1344.69 3576.67,1351.78 3574.79,1325.10 C3573.14,1292.00 3631.09,1288.02 3628.50,1323.07 Z" fill="#001744" fill-rule="nonzero"/><path d="M1885.00,1323.57 L1871.02,1323.57 C1867.32,1303.72 1832.21,1316.00 1851.69,1330.42 C1872.16,1336.02 1893.67,1341.44 1884.85,1369.64 C1875.80,1391.70 1825.39,1388.28 1830.50,1358.09 L1843.50,1357.53 C1847.24,1375.15 1875.34,1372.11 1871.00,1356.03 C1867.54,1343.20 1824.40,1353.64 1831.00,1316.20 C1836.85,1291.30 1885.99,1291.43 1885.00,1323.57 Z" fill="#001744" fill-rule="nonzero"/><path d="M2811.00,1323.57 L2798.02,1323.57 C2796.71,1307.75 2766.69,1311.25 2774.50,1326.88 C2776.87,1331.62 2793.80,1334.02 2798.90,1336.33 C2827.61,1349.33 2812.92,1391.40 2775.50,1383.10 C2760.24,1379.71 2751.02,1360.11 2757.24,1357.59 C2757.30,1357.57 2769.61,1357.50 2769.81,1357.59 C2771.54,1372.27 2800.09,1373.76 2798.00,1357.68 C2795.99,1342.20 2751.34,1353.22 2757.79,1316.63 C2763.45,1291.67 2813.11,1291.40 2811.00,1323.57 Z" fill="#001744" fill-rule="nonzero"/><path d="M2650.09,1299.56 L2649.50,1314.07 L2617.00,1314.62 L2617.00,1333.58 L2645.50,1335.08 C2646.25,1335.83 2646.23,1346.83 2644.96,1347.58 C2644.62,1347.79 2617.37,1347.43 2615.93,1348.87 L2616.50,1367.09 L2649.50,1368.09 C2650.25,1368.84 2650.25,1381.35 2649.50,1382.10 C2636.61,1382.92 2614.39,1382.92 2601.50,1382.10 L2600.98,1301.20 C2612.15,1297.57 2634.96,1300.52 2650.09,1299.56 Z" fill="#001744" fill-rule="nonzero"/><path d="M3912.69,1331.58 C3916.96,1333.11 3917.63,1344.99 3912.86,1346.58 C3912.17,1346.81 3752.07,1346.77 3751.45,1346.58 C3745.05,1344.67 3746.21,1334.24 3750.04,1332.69 C3762.81,1331.24 3911.41,1331.12 3912.69,1331.58 Z" fill="#001744" fill-rule="nonzero"/><path d="M1581.50,1331.86 C1589.12,1330.48 1739.03,1332.01 1739.16,1332.08 C1742.92,1334.10 1742.99,1344.09 1739.16,1346.08 C1739.16,1346.08 1583.02,1347.82 1577.95,1346.63 C1572.66,1345.39 1568.29,1334.25 1581.50,1331.86 Z" fill="#001744" fill-rule="nonzero"/><path d="M2055.13,1299.53 L2102.50,1300.06 C2103.09,1302.74 2104.16,1313.32 2100.76,1314.57 L2069.93,1314.57 L2070.50,1334.08 L2098.50,1335.08 C2099.27,1335.85 2099.24,1347.82 2097.96,1348.59 C2097.83,1348.67 2070.05,1348.53 2070.00,1348.59 C2069.36,1355.25 2071.52,1381.48 2068.32,1382.70 C2066.68,1383.33 2054.50,1382.10 2054.50,1382.10 C2053.98,1374.62 2053.13,1301.53 2055.13,1299.53 Z" fill="#001744" fill-rule="nonzero"/><path d="M2144.07,1299.56 L2197.79,1299.56 C2203.56,1318.82 2192.33,1313.27 2178.03,1314.84 L2177.50,1382.10 C2177.50,1382.10 2165.32,1383.33 2163.68,1382.70 C2159.25,1381.01 2164.19,1318.29 2162.00,1314.61 C2157.76,1312.45 2146.38,1314.47 2142.50,1313.07 C2141.02,1311.59 2142.10,1300.45 2144.07,1299.56 Z" fill="#001744" fill-rule="nonzero"/><path d="M3177.14,1299.53 L3233.50,1300.06 C3234.46,1301.03 3233.70,1312.59 3232.91,1313.38 L3212.00,1314.81 L3212.00,1381.39 C3212.01,1382.46 3199.09,1383.22 3197.94,1382.60 C3195.29,1381.18 3197.00,1315.57 3195.50,1314.07 C3181.77,1311.16 3170.11,1320.64 3177.14,1299.53 Z" fill="#001744" fill-rule="nonzero"/><path d="M2998.00,1303.43 L2998.00,1367.54 L3029.50,1368.09 C3030.25,1368.84 3030.25,1381.35 3029.50,1382.10 C3016.94,1382.92 2995.06,1382.92 2982.50,1382.10 C2982.49,1375.21 2980.93,1305.53 2981.97,1302.06 C2982.65,1299.79 2996.36,1296.42 2998.00,1303.43 Z" fill="#001744" fill-rule="nonzero"/><path d="M3293.00,1301.96 L3293.00,1381.56 C3292.24,1382.85 3278.32,1382.92 3277.50,1382.10 C3277.56,1375.43 3275.85,1304.17 3276.98,1301.20 C3277.74,1299.19 3291.42,1298.06 3293.00,1301.96 Z" fill="#001744" fill-rule="nonzero"/></svg>